<?xml version="1.0" standalone="no"?>
<!DOCTYPE svg PUBLIC "-//W3C//DTD SVG 20010904//EN"
 "http://www.w3.org/TR/2001/REC-SVG-20010904/DTD/svg10.dtd">
<svg version="1.0" xmlns="http://www.w3.org/2000/svg"
 width="500.000000pt" height="500.000000pt" viewBox="0 0 500.000000 500.000000"
 preserveAspectRatio="xMidYMid meet">
<metadata>
Created by potrace 1.11, written by Peter Selinger 2001-2013
</metadata>
<g transform="translate(0.000000,500.000000) scale(0.100000,-0.100000)"
fill="#000000" stroke="none">
<path d="M2678 4259 c-8 -4 -34 -9 -59 -10 -24 -1 -49 -6 -56 -11 -7 -5 -14
-5 -18 2 -5 7 -11 8 -19 1 -7 -6 -30 -11 -51 -12 -22 -1 -44 -5 -50 -8 -13 -7
-18 -8 -56 -10 -17 0 -28 -5 -24 -11 4 -6 -10 -10 -34 -10 -23 0 -41 -4 -41
-8 0 -5 -14 -9 -31 -10 -17 0 -37 -6 -45 -12 -7 -7 -20 -10 -28 -7 -8 3 -17
-1 -20 -9 -3 -8 -18 -14 -34 -14 -15 0 -32 -4 -38 -10 -5 -5 -22 -11 -36 -12
-15 -1 -25 -5 -22 -9 5 -9 -36 -25 -72 -28 -8 0 -13 -5 -9 -10 3 -6 -3 -8 -14
-6 -11 2 -22 -3 -25 -11 -3 -7 -12 -11 -21 -8 -8 3 -15 1 -15 -6 0 -6 -4 -9
-9 -5 -5 3 -16 -1 -24 -9 -8 -8 -17 -13 -19 -10 -3 2 -11 -2 -18 -11 -7 -8
-20 -15 -29 -15 -10 0 -27 -9 -39 -20 -12 -11 -23 -20 -24 -20 -10 4 -58 -22
-54 -28 2 -4 -4 -8 -15 -9 -10 -1 -34 -13 -52 -27 -19 -14 -38 -26 -43 -26 -5
0 -15 -9 -22 -20 -7 -12 -17 -18 -22 -15 -6 4 -13 -1 -16 -9 -3 -9 -12 -16
-20 -16 -8 0 -14 -5 -14 -11 0 -5 -4 -7 -10 -4 -5 3 -10 -1 -10 -9 0 -9 -7
-16 -15 -16 -8 0 -15 -4 -15 -9 0 -5 -22 -26 -50 -47 -27 -21 -50 -42 -50 -47
0 -13 -27 -37 -34 -30 -3 4 -6 -1 -6 -10 0 -9 -4 -17 -10 -17 -5 0 -10 -7 -10
-16 0 -8 -4 -12 -10 -9 -5 3 -10 -3 -10 -14 0 -12 -4 -21 -10 -21 -5 0 -10 -9
-10 -21 0 -11 -4 -17 -10 -14 -5 3 -10 3 -11 -2 0 -4 -3 -19 -5 -33 -3 -14 -6
-39 -7 -57 -1 -17 -5 -29 -9 -26 -13 7 -9 -12 5 -26 10 -11 9 -12 -1 -7 -10 6
-11 1 -6 -21 4 -15 8 -38 8 -50 0 -12 4 -19 8 -17 7 5 12 -18 9 -38 0 -5 6 -8
14 -8 9 0 12 -6 8 -17 -3 -10 -3 -15 1 -11 4 3 22 -7 38 -23 17 -16 39 -29 49
-29 10 0 20 -4 24 -9 7 -12 94 -9 114 3 10 6 12 5 7 -2 -4 -7 10 -2 31 10 21
12 40 26 41 30 2 4 9 8 16 8 7 0 18 10 24 23 6 12 11 16 11 8 1 -9 11 -3 28
15 15 16 31 28 35 26 5 -1 11 5 14 13 4 8 12 15 19 15 6 0 20 9 30 20 10 12
24 19 31 16 9 -3 11 1 7 11 -4 10 -2 14 7 11 7 -2 24 6 38 19 13 12 28 20 32
18 4 -3 11 2 14 11 3 8 10 13 15 10 5 -3 12 1 15 10 3 8 10 12 16 9 6 -3 13 0
16 9 3 9 12 12 21 9 10 -4 14 -2 9 5 -3 6 2 13 13 17 11 3 35 16 54 29 19 13
51 29 71 36 20 6 34 16 31 21 -4 5 5 9 19 9 14 0 26 5 26 10 0 6 9 10 20 10
11 0 20 5 20 11 0 5 4 8 9 5 5 -4 11 -2 13 4 2 6 17 11 35 13 17 1 31 6 30 11
-1 6 9 10 23 10 14 1 29 7 33 14 5 7 12 10 18 7 5 -4 9 -2 9 3 0 8 14 12 52
13 10 0 20 4 23 10 4 5 15 9 26 9 10 0 19 3 19 8 0 4 19 8 42 9 24 2 44 7 46
13 2 5 19 10 38 10 26 0 33 3 28 13 -5 8 -2 8 9 -2 12 -9 21 -10 30 -3 15 12
11 12 93 12 47 0 63 3 58 12 -5 7 -3 8 7 2 24 -14 51 -16 43 -2 -6 10 -4 11 7
1 7 -7 36 -13 65 -13 33 0 54 -5 57 -12 4 -10 6 -10 6 0 1 6 6 12 12 12 5 0 7
-5 4 -11 -4 -6 -1 -10 6 -8 30 4 60 -1 55 -10 -3 -4 6 -7 19 -5 14 1 31 -3 38
-9 7 -7 19 -13 27 -15 8 -2 17 -7 20 -10 3 -4 12 -8 20 -10 8 -2 17 -8 18 -13
2 -5 9 -9 16 -9 7 0 29 -16 50 -35 21 -19 42 -35 47 -35 5 0 6 -7 3 -15 -4
-10 0 -15 12 -15 9 0 14 -3 11 -7 -4 -3 0 -15 10 -25 9 -10 13 -18 10 -18 -4
0 2 -15 13 -32 12 -20 20 -51 20 -76 0 -32 3 -41 13 -36 9 6 9 4 1 -7 -5 -8
-10 -33 -10 -56 1 -24 -2 -43 -5 -43 -4 0 -10 -7 -13 -16 -4 -10 -2 -13 6 -8
7 5 8 3 2 -7 -4 -8 -9 -21 -11 -29 -1 -8 -7 -16 -12 -18 -6 -2 -11 -13 -11
-23 0 -11 -4 -18 -8 -15 -4 2 -8 -4 -9 -14 -1 -10 -11 -28 -23 -40 -11 -11
-18 -26 -14 -33 4 -7 4 -9 0 -6 -8 7 -76 -58 -76 -73 0 -5 -4 -6 -10 -3 -5 3
-10 -1 -10 -9 0 -9 -3 -15 -7 -14 -16 3 -43 -15 -43 -28 0 -8 -3 -14 -7 -13
-18 3 -52 -14 -47 -22 3 -5 -4 -9 -15 -9 -12 0 -21 -4 -21 -10 0 -5 -9 -10
-20 -10 -11 0 -19 -4 -17 -9 1 -5 -2 -10 -8 -12 -5 -2 -19 -11 -29 -21 -11
-10 -23 -18 -28 -18 -4 0 -8 -8 -8 -17 0 -9 -3 -13 -7 -10 -3 4 -17 -9 -30
-28 -13 -19 -28 -35 -34 -35 -6 0 -8 -4 -4 -9 3 -5 -1 -15 -8 -23 -8 -7 -13
-21 -11 -31 1 -9 -2 -17 -7 -17 -6 0 -7 -4 -4 -10 3 -5 1 -10 -6 -10 -7 0 -9
-3 -6 -7 4 -3 -1 -15 -10 -25 -16 -18 -16 -18 0 -12 14 5 16 2 10 -12 -3 -11
-11 -22 -17 -26 -7 -5 -5 -8 4 -8 13 0 13 -1 0 -10 -12 -8 -12 -10 5 -11 l20
0 -20 -9 c-11 -5 -15 -9 -8 -9 6 -1 10 -12 8 -26 -1 -14 2 -25 7 -25 6 0 8 -7
4 -15 -3 -8 -1 -15 4 -15 5 0 6 -7 3 -17 -4 -11 -3 -14 5 -9 8 5 12 0 12 -13
0 -12 5 -21 12 -21 6 0 8 -3 5 -6 -8 -8 76 -94 92 -94 6 0 11 -4 11 -9 0 -5
14 -14 30 -21 17 -7 30 -17 30 -22 0 -5 5 -6 10 -3 6 3 13 -1 16 -9 3 -9 10
-13 15 -10 11 6 39 -20 39 -36 0 -6 3 -9 8 -7 4 2 17 -7 29 -20 12 -13 18 -23
13 -23 -6 0 -1 -9 10 -20 11 -11 20 -29 20 -40 0 -11 5 -20 10 -20 6 0 10 -5
10 -11 0 -5 -6 -7 -12 -3 -10 6 -10 4 0 -7 16 -17 17 -113 0 -103 -7 5 -8 3
-2 -7 12 -20 14 -40 3 -33 -5 3 -9 -9 -9 -26 0 -18 -4 -29 -10 -25 -6 4 -10
-6 -10 -22 0 -22 -2 -25 -10 -13 -8 12 -10 11 -10 -7 0 -13 -4 -23 -10 -23 -5
0 -10 -7 -10 -15 0 -8 -7 -15 -16 -15 -8 0 -13 -3 -11 -7 7 -11 -19 -33 -29
-25 -4 4 -5 0 -2 -8 4 -11 -1 -16 -14 -17 -11 -1 -27 -11 -35 -23 -8 -11 -20
-20 -26 -19 -25 3 -38 -1 -32 -11 5 -8 -39 -16 -67 -11 -5 0 -8 -2 -8 -7 0
-11 -148 -12 -177 -1 -17 6 -22 6 -17 -2 4 -7 -3 -6 -17 2 -13 7 -28 14 -34
14 -22 2 -65 25 -65 35 0 5 -7 10 -15 10 -8 0 -15 7 -15 16 0 8 -4 13 -9 10
-4 -3 -13 6 -19 19 -7 14 -17 25 -23 25 -6 0 -9 6 -7 12 3 7 -2 19 -9 27 -8 7
-12 20 -9 28 3 8 2 12 -3 9 -14 -9 -22 57 -26 209 -2 96 1 145 8 154 9 12 9
13 0 7 -7 -4 -13 -3 -13 3 0 5 5 13 10 16 8 5 7 12 -2 23 -10 12 -10 14 0 8 8
-5 12 0 12 16 0 18 -2 20 -10 8 -5 -8 -10 -10 -10 -4 0 6 3 14 7 18 9 9 14 33
14 79 0 26 4 35 12 30 7 -4 6 0 -2 10 -9 11 -10 17 -2 17 6 0 11 5 11 11 0 5
-5 7 -12 3 -7 -5 -8 -3 -2 7 4 8 10 21 12 29 6 29 13 75 15 98 0 12 5 22 10
22 5 0 4 6 -2 14 -9 10 -8 16 4 26 8 7 15 25 15 41 0 16 4 29 8 29 5 0 9 6 10
13 0 6 4 32 8 57 4 25 8 66 8 92 1 39 3 44 15 35 12 -10 12 -9 3 10 -14 26
-15 36 -3 29 4 -3 5 12 1 34 -4 22 -5 40 -1 40 3 0 -1 5 -9 10 -12 8 -12 10
-1 10 9 0 10 4 4 13 -6 6 -9 22 -8 35 1 12 -2 22 -7 22 -5 0 -6 5 -3 10 3 6 1
10 -6 10 -7 0 -9 3 -6 6 13 13 -70 114 -93 114 -5 0 -10 5 -10 10 0 6 -5 10
-12 10 -6 0 -20 8 -31 18 -13 11 -17 12 -12 3 5 -9 -5 -7 -27 7 -19 12 -38 19
-41 15 -4 -3 -7 -1 -7 5 0 7 -5 12 -11 12 -5 0 -7 -6 -3 -12 6 -10 4 -10 -8 0
-20 16 -147 14 -167 -2 -12 -9 -13 -8 -6 4 7 12 6 13 -7 3 -8 -7 -27 -14 -41
-15 -14 -1 -23 -6 -21 -10 3 -4 -4 -8 -15 -8 -12 0 -21 -4 -21 -10 0 -5 -7
-10 -16 -10 -8 0 -22 -6 -29 -12 -30 -27 -44 -38 -50 -38 -3 0 -23 -16 -43
-37 -20 -20 -30 -33 -22 -29 12 6 11 4 -1 -6 -9 -7 -15 -21 -13 -31 1 -9 -2
-15 -7 -11 -8 5 -13 -9 -10 -28 0 -5 -4 -8 -9 -8 -6 0 -10 -12 -10 -26 0 -16
-5 -24 -12 -21 -7 2 -23 0 -35 -4 -13 -5 -23 -5 -23 1 0 5 -12 5 -30 0 -16 -5
-32 -5 -35 0 -3 4 -20 4 -39 0 -19 -4 -40 -4 -47 0 -7 5 -22 5 -33 1 -12 -5
-27 -6 -33 -4 -7 3 -13 0 -13 -6 0 -6 -7 -8 -15 -5 -9 4 -15 0 -15 -9 0 -9 -8
-22 -18 -29 -20 -13 -29 -78 -11 -78 5 0 8 -3 8 -7 -3 -21 3 -33 17 -33 8 0
12 -4 9 -10 -3 -5 3 -10 14 -10 12 0 21 -4 21 -10 0 -5 5 -10 11 -10 5 0 7 6
3 13 -6 9 -4 9 8 -1 11 -9 18 -10 23 -2 3 5 12 10 18 10 8 0 7 -3 -2 -9 -10
-6 -2 -9 22 -9 25 0 35 4 30 11 -5 9 -3 9 8 1 16 -12 29 -12 47 0 7 4 18 3 25
-2 16 -13 49 -12 66 2 11 8 13 8 8 -1 -5 -8 3 -11 25 -11 52 0 60 -1 53 -12
-3 -6 1 -7 9 -4 9 3 16 1 16 -6 0 -6 4 -9 8 -6 5 3 9 0 10 -7 1 -7 4 -29 7
-50 5 -28 3 -43 -9 -56 -9 -10 -13 -21 -9 -25 5 -4 1 -6 -7 -4 -8 2 -14 -3
-12 -10 1 -8 -1 -11 -6 -8 -4 2 -14 1 -21 -4 -8 -4 -26 -4 -41 0 -15 4 -34 3
-45 -2 -14 -8 -16 -8 -10 2 5 8 4 11 -2 7 -15 -9 -146 -12 -161 -4 -6 5 -12 5
-12 0 0 -10 -213 -8 -229 1 -6 4 -11 2 -11 -4 0 -6 -5 -8 -11 -5 -10 6 -94 7
-189 1 -50 -3 -108 -26 -102 -41 2 -4 -2 -11 -8 -15 -16 -10 -15 -81 2 -91 7
-5 9 -9 5 -9 -12 0 20 -30 32 -30 6 0 11 -6 11 -12 0 -9 4 -8 10 2 5 8 10 10
10 4 0 -16 299 -16 319 0 11 8 13 8 8 0 -4 -8 14 -11 58 -12 44 0 65 3 65 11
0 7 4 6 10 -3 8 -13 13 -13 31 -2 11 8 18 9 15 3 -9 -13 37 -10 46 4 5 7 8 7
8 -1 0 -6 15 -11 32 -12 18 0 34 -6 36 -11 2 -6 10 -11 18 -11 9 0 12 -4 9
-10 -3 -6 -1 -10 4 -10 6 0 11 -7 11 -16 0 -8 4 -13 8 -10 11 6 9 -40 -1 -50
-4 -4 -7 -15 -7 -25 0 -10 -9 -21 -20 -24 -11 -3 -20 -10 -20 -14 0 -11 -31
-13 -247 -14 -111 -1 -199 -5 -197 -9 2 -3 -4 -9 -14 -12 -10 -4 -25 -19 -32
-34 -7 -15 -17 -35 -22 -46 -7 -12 -6 -16 1 -11 6 3 11 -2 11 -12 0 -21 44
-76 54 -66 3 3 6 1 6 -6 0 -9 15 -12 50 -10 27 2 53 0 56 -4 4 -4 16 1 27 10
11 10 17 12 13 6 -4 -7 -4 -13 1 -14 4 0 18 -2 31 -3 14 -2 22 3 22 13 0 11 3
10 15 -5 11 -14 14 -15 15 -4 0 13 1 13 10 0 9 -13 10 -13 10 0 0 13 1 13 10
0 8 -12 10 -12 10 -1 0 11 3 11 15 1 8 -7 15 -8 15 -3 0 11 33 9 63 -2 11 -5
17 -2 17 6 0 11 3 11 10 -1 5 -8 10 -10 10 -4 0 7 17 8 50 4 28 -4 50 -4 50 0
0 4 23 4 50 0 28 -4 50 -3 50 2 0 5 9 4 20 -2 13 -7 20 -7 20 -1 0 7 9 7 26 0
15 -5 29 -7 31 -5 3 3 16 -6 30 -20 17 -17 25 -36 25 -61 0 -25 3 -32 9 -22 5
8 9 10 9 6 0 -9 -41 -69 -55 -79 -5 -4 -13 -4 -17 -2 -4 3 -8 1 -8 -5 0 -7
-218 -10 -656 -11 -665 0 -676 -1 -712 -36 -19 -20 -23 -104 -5 -111 12 -5 12
-7 1 -14 -9 -6 -7 -9 8 -9 12 0 25 -7 28 -16 4 -9 9 -14 13 -11 3 4 14 2 24
-3 12 -7 20 -7 24 0 5 8 11 7 21 -1 11 -9 14 -9 14 0 0 8 5 9 19 1 14 -7 22
-7 26 0 5 8 11 8 19 1 9 -7 16 -7 23 0 8 8 13 8 17 0 4 -6 12 -11 17 -11 6 0
8 4 5 8 -6 10 50 9 60 -1 10 -9 26 -9 21 1 -3 4 10 7 28 7 18 0 31 -3 28 -7
-2 -5 3 -8 12 -8 9 0 14 4 11 8 -6 10 25 9 42 -2 7 -4 12 -2 12 6 0 9 3 9 10
-2 8 -13 12 -13 32 -1 16 10 23 10 26 2 2 -6 8 -11 13 -11 6 0 7 5 3 11 -5 8
-1 8 14 0 24 -13 35 -14 29 -3 -3 4 5 7 18 7 13 0 21 -3 18 -7 -2 -5 3 -8 12
-8 9 0 14 4 11 8 -6 10 25 9 42 -2 7 -4 12 -2 12 6 0 9 3 9 10 -2 8 -13 12
-13 32 -1 16 10 23 10 26 2 2 -6 8 -11 13 -11 6 0 7 5 3 11 -5 8 -1 8 14 0 24
-13 35 -14 29 -3 -3 4 5 7 18 7 13 0 21 -3 18 -7 -2 -5 3 -8 12 -8 9 0 14 4
11 8 -6 10 25 9 42 -2 7 -4 12 -2 12 6 0 10 2 10 9 -1 6 -9 15 -11 27 -6 30
13 44 14 50 4 3 -5 10 -9 15 -9 6 0 8 4 5 8 -6 10 50 9 60 -1 10 -9 26 -9 21
1 -3 4 11 8 30 8 25 1 31 -1 22 -8 -10 -6 -4 -8 19 -5 24 3 32 0 28 -10 -3 -7
1 -13 9 -13 16 0 38 -34 28 -44 -3 -3 2 -6 13 -6 15 0 16 -2 5 -9 -7 -5 -10
-14 -7 -20 4 -6 2 -11 -4 -11 -6 0 -8 -5 -5 -10 4 -6 -8 -24 -25 -40 -32 -30
-33 -30 -159 -31 -69 -1 -134 -2 -143 -2 -10 0 -15 -4 -12 -8 5 -8 -9 -13 -28
-10 -4 0 -4 -7 -1 -16 4 -11 3 -14 -5 -9 -11 6 -17 -12 -13 -36 0 -5 -4 -8
-10 -8 -8 0 -7 -6 2 -17 10 -12 10 -15 1 -9 -7 4 -5 -6 6 -25 10 -18 31 -41
48 -50 34 -21 48 -23 38 -8 -4 8 -1 8 13 1 12 -7 24 -7 37 0 14 8 17 7 12 -1
-10 -15 7 -14 23 2 8 6 11 7 8 1 -4 -7 5 -11 23 -11 16 0 27 4 24 9 -3 4 7 3
21 -2 32 -12 38 -12 31 -2 -2 4 4 8 14 8 10 0 16 -4 14 -8 -7 -11 4 -10 28 3
15 8 19 8 14 0 -9 -14 0 -14 26 0 11 6 18 7 14 1 -3 -5 5 -9 19 -9 15 0 22 4
18 11 -3 6 3 3 14 -7 11 -9 23 -14 26 -10 4 3 7 -1 7 -11 0 -9 4 -15 9 -11 5
3 12 1 16 -5 3 -5 14 -10 24 -10 10 0 31 -10 47 -22 15 -13 25 -18 21 -11 -4
6 10 2 30 -8 21 -11 45 -19 55 -19 9 0 20 -5 24 -11 3 -6 15 -9 25 -6 11 3 17
2 14 -3 -6 -10 24 -22 36 -14 5 3 12 -1 15 -9 3 -8 13 -13 24 -10 10 3 21 0
24 -6 4 -6 20 -11 37 -11 16 0 29 -3 29 -7 0 -5 12 -9 26 -10 15 0 30 -6 34
-13 6 -9 9 -9 13 1 5 12 7 12 15 0 6 -8 19 -12 31 -8 12 3 21 1 21 -4 0 -4 7
-6 15 -3 8 4 15 1 15 -6 0 -9 4 -9 17 1 11 10 14 10 9 2 -5 -10 6 -13 46 -14
29 -1 56 -1 61 0 4 0 7 -5 7 -12 0 -8 4 -7 10 3 6 9 10 10 10 3 0 -15 347 -17
356 -2 3 5 11 9 17 9 7 0 6 -4 -3 -10 -8 -5 -10 -10 -4 -10 5 0 15 5 22 12 9
9 12 9 12 -2 0 -11 2 -12 8 -3 5 7 28 14 53 14 24 1 49 5 54 9 6 4 21 10 35
13 62 13 73 17 88 29 13 11 15 11 7 -2 -6 -12 -5 -13 6 -3 7 7 23 13 35 13 12
0 27 7 34 15 15 18 34 20 24 3 -4 -7 2 -5 13 4 11 10 25 18 32 18 7 0 9 4 6
10 -3 6 1 7 9 4 9 -3 16 -1 16 5 0 6 3 10 8 9 14 -4 52 13 52 24 0 5 7 7 16 4
8 -3 12 -2 9 3 -3 5 10 15 30 22 23 9 31 16 22 21 -8 5 -7 8 5 8 9 0 24 7 32
16 9 8 16 13 16 11 0 -3 16 9 36 26 71 63 104 97 104 107 0 6 5 8 10 5 6 -3
10 -1 10 6 0 6 9 20 21 30 11 9 21 21 22 26 1 4 5 7 10 5 4 -1 7 4 7 12 0 21
26 67 33 59 4 -3 7 4 7 16 0 12 4 19 10 16 5 -3 7 0 4 8 -3 8 2 21 10 30 8 8
12 17 9 21 -4 3 0 6 8 6 11 0 11 2 -1 10 -13 8 -13 10 2 10 11 0 16 6 13 20
-2 11 0 20 6 20 5 0 8 3 8 8 -1 4 -1 20 0 35 1 20 5 26 14 21 7 -5 6 0 -3 11
-8 10 -10 16 -4 12 10 -6 12 1 17 86 1 15 6 27 12 27 5 0 4 4 -4 9 -9 6 -10
11 -2 15 7 5 7 13 -2 27 -10 16 -9 21 3 29 8 5 10 10 5 10 -6 0 -12 17 -13 37
-2 20 -8 44 -15 52 -10 12 -9 13 1 7 11 -7 12 -4 3 12 -6 11 -11 30 -11 42 0
12 -4 19 -8 16 -4 -2 -8 3 -9 12 -3 43 -8 62 -15 62 -4 0 -8 7 -8 15 0 8 -5
15 -11 15 -5 0 -8 4 -4 9 3 5 -2 16 -11 25 -8 9 -12 20 -9 26 3 6 -1 13 -10
16 -9 4 -14 13 -11 21 3 8 2 12 -2 9 -4 -2 -14 -1 -22 5 -9 5 -10 9 -3 9 6 0
-4 16 -23 35 -19 20 -34 40 -34 45 0 6 -7 10 -17 10 -9 0 -14 3 -11 6 7 7 -39
54 -53 54 -6 0 -7 5 -4 10 3 6 1 10 -5 10 -14 0 -90 75 -90 90 0 5 -4 10 -10
10 -5 0 -10 9 -10 20 0 11 -4 20 -10 20 -18 0 -11 50 10 67 11 10 20 21 20 26
0 5 7 15 15 23 8 9 15 12 15 8 0 -4 8 3 19 14 10 12 21 19 25 15 3 -3 6 -1 6
5 0 7 9 21 20 32 11 11 20 17 20 14 0 -4 10 6 22 22 12 16 33 38 45 49 13 11
23 24 23 29 0 12 27 36 34 29 3 -4 6 4 6 16 0 12 4 19 10 16 6 -3 10 -1 10 5
0 6 7 18 15 27 8 8 13 19 9 24 -3 5 -2 8 3 7 4 -2 9 1 10 5 1 5 10 16 21 25
10 9 17 23 15 30 -3 6 0 12 6 12 6 0 11 7 11 15 0 8 4 15 9 15 9 0 34 54 34
75 0 7 6 11 14 8 9 -4 11 0 7 11 -4 10 -1 16 7 16 7 0 9 3 6 6 -3 4 -1 16 5
28 7 11 13 30 15 41 2 11 8 22 13 23 6 2 10 8 10 13 0 6 -5 7 -11 4 -6 -5 -6
2 2 16 30 58 31 61 17 53 -10 -6 -11 -5 -1 7 10 12 10 18 0 29 -9 10 -9 11 1
6 9 -5 12 5 13 36 1 83 -3 153 -10 158 -4 3 -8 18 -9 35 -2 33 -23 85 -34 85
-5 0 -8 9 -8 20 0 11 -4 20 -10 20 -5 0 -10 9 -10 21 0 13 -4 18 -12 13 -8 -5
-9 -2 -5 9 4 11 1 17 -8 17 -8 0 -15 7 -15 16 0 8 -4 12 -10 9 -5 -3 -10 3
-10 14 0 12 -4 20 -8 18 -5 -1 -23 13 -39 31 -17 17 -34 32 -37 32 -3 0 -15 8
-25 18 -37 32 -50 42 -61 42 -5 0 -10 4 -10 8 0 4 -22 19 -50 33 -27 13 -50
28 -50 32 0 5 -4 5 -10 2 -5 -3 -10 -1 -10 5 0 7 -7 9 -16 6 -8 -3 -12 -2 -9
4 3 6 -3 10 -14 10 -12 0 -21 5 -21 10 0 6 -11 10 -24 10 -13 0 -26 5 -28 11
-2 6 -15 12 -30 12 -14 1 -25 4 -23 7 2 3 -8 10 -21 17 -18 8 -22 8 -18 0 5
-8 2 -7 -7 1 -7 6 -21 12 -31 12 -10 0 -18 4 -18 9 0 6 -9 10 -20 10 -11 1
-29 1 -40 2 -11 0 -18 4 -15 10 6 9 -18 13 -65 10 -20 -2 -22 0 -10 8 11 8 5
11 -27 11 -24 0 -43 5 -46 13 -4 9 -6 9 -6 -1 -1 -9 -6 -10 -20 -2 -14 7 -21
6 -24 -3 -4 -9 -6 -9 -6 1 -1 7 -16 12 -42 12 -28 0 -38 4 -33 12 5 7 3 8 -7
2 -19 -12 -39 -14 -39 -4 0 10 -20 8 -39 -4 -10 -6 -12 -5 -7 2 4 7 1 12 -8
12 -8 0 -18 -5 -21 -10 -5 -8 -11 -8 -20 0 -15 12 -265 10 -265 -2 0 -5 -5 -8
-11 -8 -5 0 -8 4 -5 8 6 11 -18 11 -36 1z"/>
<path d="M2505 2530 c-3 -5 -1 -10 4 -10 6 0 11 5 11 10 0 6 -2 10 -4 10 -3 0
-8 -4 -11 -10z"/>
<path d="M995 1299 c3 -4 -5 -9 -17 -11 -13 -2 -22 -9 -20 -16 1 -6 -3 -12 -9
-12 -7 0 -9 -10 -7 -25 3 -13 1 -26 -4 -27 -25 -9 33 -94 62 -92 8 0 21 -5 29
-10 11 -8 13 -8 7 2 -4 6 -2 12 3 12 6 0 11 -6 11 -12 0 -9 4 -8 10 2 7 11 10
11 10 2 0 -9 5 -10 19 -3 10 6 21 7 25 4 9 -9 55 -10 50 -1 -3 4 6 4 20 -2 17
-6 26 -6 26 0 0 6 5 10 11 10 5 0 8 -4 5 -8 -2 -4 11 -8 29 -8 18 0 31 4 29 8
-5 7 18 12 39 9 4 0 7 6 7 15 0 8 4 13 8 10 4 -2 9 5 9 16 1 12 8 25 15 29 8
5 8 9 2 9 -6 0 -11 14 -12 30 -1 30 -24 65 -36 53 -3 -4 -6 -1 -6 6 0 7 -4 9
-10 6 -5 -3 -10 -2 -10 4 0 6 -57 9 -150 9 -82 0 -147 -4 -145 -9z"/>
</g>
</svg>
